g SimpleUnit
v 0.5 -0.5 0
v 0.25 -0.5 0
v 0 -0.5 0
v -0.25 -0.5 0
v -0.5 -0.5 0
v 0.5 -0.25 0
v 0.25 -0.25 0
v 0 -0.25 0
v -0.25 -0.25 0
v -0.5 -0.25 0
v 0.5 0 0
v 0.25 0 0
v 0 0 0
v -0.25 0 0
v -0.5 0 0
v 0.5 0.25 0
v 0.25 0.25 0
v 0 0.25 0
v -0.25 0.25 0
v -0.5 0.25 0
v 0.5 0.5 0
v 0.25 0.5 0
v 0 0.5 0
v -0.25 0.5 0
v -0.5 0.5 0
v 0.5 -0.5 0
v 0.25 -0.5 0
v 0 -0.5 0
v -0.25 -0.5 0
v -0.5 -0.5 0
v 0.5 -0.25 0
v 0.25 -0.25 0
v 0 -0.25 0
v -0.25 -0.25 0
v -0.5 -0.25 0
v 0.5 0 0
v 0.25 0 0
v 0 0 0
v -0.25 0 0
v -0.5 0 0
v 0.5 0.25 0
v 0.25 0.25 0
v 0 0.25 0
v -0.25 0.25 0
v -0.5 0.25 0
v 0.5 0.5 0
v 0.25 0.5 0
v 0 0.5 0
v -0.25 0.5 0
v -0.5 0.5 0
vt 0 0
vt -0.25 0
vt -0.5 0
vt -0.75 0
vt -1 0
vt 0 0.25
vt -0.25 0.25
vt -0.5 0.25
vt -0.75 0.25
vt -1 0.25
vt 0 0.5
vt -0.25 0.5
vt -0.5 0.5
vt -0.75 0.5
vt -1 0.5
vt 0 0.75
vt -0.25 0.75
vt -0.5 0.75
vt -0.75 0.75
vt -1 0.75
vt 0 1
vt -0.25 1
vt -0.5 1
vt -0.75 1
vt -1 1
vt 0 0
vt 0.25 0
vt 0.5 0
vt 0.75 0
vt 1 0
vt 0 0.25
vt 0.25 0.25
vt 0.5 0.25
vt 0.75 0.25
vt 1 0.25
vt 0 0.5
vt 0.25 0.5
vt 0.5 0.5
vt 0.75 0.5
vt 1 0.5
vt 0 0.75
vt 0.25 0.75
vt 0.5 0.75
vt 0.75 0.75
vt 1 0.75
vt 0 1
vt 0.25 1
vt 0.5 1
vt 0.75 1
vt 1 1
vn 0 0 1
vn 0 0 1
vn 0 0 1
vn 0 0 1
vn 0 0 1
vn 0 0 1
vn 0 0 1
vn 0 0 1
vn 0 0 1
vn 0 0 1
vn 0 0 1
vn 0 0 1
vn 0 0 1
vn 0 0 1
vn 0 0 1
vn 0 0 1
vn 0 0 1
vn 0 0 1
vn 0 0 1
vn 0 0 1
vn 0 0 1
vn 0 0 1
vn 0 0 1
vn 0 0 1
vn 0 0 1
vn 0 0 -1
vn 0 0 -1
vn 0 0 -1
vn 0 0 -1
vn 0 0 -1
vn 0 0 -1
vn 0 0 -1
vn 0 0 -1
vn 0 0 -1
vn 0 0 -1
vn 0 0 -1
vn 0 0 -1
vn 0 0 -1
vn 0 0 -1
vn 0 0 -1
vn 0 0 -1
vn 0 0 -1
vn 0 0 -1
vn 0 0 -1
vn 0 0 -1
vn 0 0 -1
vn 0 0 -1
vn 0 0 -1
vn 0 0 -1
vn 0 0 -1
g SimpleUnit_0
f 6/6/6 2/2/2 1/1/1
f 6/6/6 7/7/7 2/2/2
f 7/7/7 3/3/3 2/2/2
f 7/7/7 8/8/8 3/3/3
f 8/8/8 4/4/4 3/3/3
f 8/8/8 9/9/9 4/4/4
f 9/9/9 5/5/5 4/4/4
f 9/9/9 10/10/10 5/5/5
f 11/11/11 7/7/7 6/6/6
f 11/11/11 12/12/12 7/7/7
f 12/12/12 8/8/8 7/7/7
f 12/12/12 13/13/13 8/8/8
f 13/13/13 9/9/9 8/8/8
f 13/13/13 14/14/14 9/9/9
f 14/14/14 10/10/10 9/9/9
f 14/14/14 15/15/15 10/10/10
f 16/16/16 12/12/12 11/11/11
f 16/16/16 17/17/17 12/12/12
f 17/17/17 13/13/13 12/12/12
f 17/17/17 18/18/18 13/13/13
f 18/18/18 14/14/14 13/13/13
f 18/18/18 19/19/19 14/14/14
f 19/19/19 15/15/15 14/14/14
f 19/19/19 20/20/20 15/15/15
f 21/21/21 17/17/17 16/16/16
f 21/21/21 22/22/22 17/17/17
f 22/22/22 18/18/18 17/17/17
f 22/22/22 23/23/23 18/18/18
f 23/23/23 19/19/19 18/18/18
f 23/23/23 24/24/24 19/19/19
f 24/24/24 20/20/20 19/19/19
f 24/24/24 25/25/25 20/20/20
f 26/26/26 27/27/27 32/32/32
f 32/32/32 31/31/31 26/26/26
f 27/27/27 28/28/28 33/33/33
f 33/33/33 32/32/32 27/27/27
f 28/28/28 29/29/29 34/34/34
f 34/34/34 33/33/33 28/28/28
f 29/29/29 30/30/30 35/35/35
f 35/35/35 34/34/34 29/29/29
f 31/31/31 32/32/32 37/37/37
f 37/37/37 36/36/36 31/31/31
f 32/32/32 33/33/33 38/38/38
f 38/38/38 37/37/37 32/32/32
f 33/33/33 34/34/34 39/39/39
f 39/39/39 38/38/38 33/33/33
f 34/34/34 35/35/35 40/40/40
f 40/40/40 39/39/39 34/34/34
f 36/36/36 37/37/37 42/42/42
f 42/42/42 41/41/41 36/36/36
f 37/37/37 38/38/38 43/43/43
f 43/43/43 42/42/42 37/37/37
f 38/38/38 39/39/39 44/44/44
f 44/44/44 43/43/43 38/38/38
f 39/39/39 40/40/40 45/45/45
f 45/45/45 44/44/44 39/39/39
f 41/41/41 42/42/42 47/47/47
f 47/47/47 46/46/46 41/41/41
f 42/42/42 43/43/43 48/48/48
f 48/48/48 47/47/47 42/42/42
f 43/43/43 44/44/44 49/49/49
f 49/49/49 48/48/48 43/43/43
f 44/44/44 45/45/45 50/50/50
f 50/50/50 49/49/49 44/44/44
