g SimpleUnitOneSided
v 0.5 -0.5 0
v 0.25 -0.5 0
v 0 -0.5 0
v -0.25 -0.5 0
v -0.5 -0.5 0
v 0.5 -0.25 0
v 0.25 -0.25 0
v 0 -0.25 0
v -0.25 -0.25 0
v -0.5 -0.25 0
v 0.5 0 0
v 0.25 0 0
v 0 0 0
v -0.25 0 0
v -0.5 0 0
v 0.5 0.25 0
v 0.25 0.25 0
v 0 0.25 0
v -0.25 0.25 0
v -0.5 0.25 0
v 0.5 0.5 0
v 0.25 0.5 0
v 0 0.5 0
v -0.25 0.5 0
v -0.5 0.5 0
vt 0 0
vt 0.25 0
vt 0.5 0
vt 0.75 0
vt 1 0
vt 0 0.25
vt 0.25 0.25
vt 0.5 0.25
vt 0.75 0.25
vt 1 0.25
vt 0 0.5
vt 0.25 0.5
vt 0.5 0.5
vt 0.75 0.5
vt 1 0.5
vt 0 0.75
vt 0.25 0.75
vt 0.5 0.75
vt 0.75 0.75
vt 1 0.75
vt 0 1
vt 0.25 1
vt 0.5 1
vt 0.75 1
vt 1 1
vn 0 0 -1
vn 0 0 -1
vn 0 0 -1
vn 0 0 -1
vn 0 0 -1
vn 0 0 -1
vn 0 0 -1
vn 0 0 -1
vn 0 0 -1
vn 0 0 -1
vn 0 0 -1
vn 0 0 -1
vn 0 0 -1
vn 0 0 -1
vn 0 0 -1
vn 0 0 -1
vn 0 0 -1
vn 0 0 -1
vn 0 0 -1
vn 0 0 -1
vn 0 0 -1
vn 0 0 -1
vn 0 0 -1
vn 0 0 -1
vn 0 0 -1
g SimpleUnitOneSided_0
f 1/1/1 2/2/2 7/7/7
f 7/7/7 6/6/6 1/1/1
f 2/2/2 3/3/3 8/8/8
f 8/8/8 7/7/7 2/2/2
f 3/3/3 4/4/4 9/9/9
f 9/9/9 8/8/8 3/3/3
f 4/4/4 5/5/5 10/10/10
f 10/10/10 9/9/9 4/4/4
f 6/6/6 7/7/7 12/12/12
f 12/12/12 11/11/11 6/6/6
f 7/7/7 8/8/8 13/13/13
f 13/13/13 12/12/12 7/7/7
f 8/8/8 9/9/9 14/14/14
f 14/14/14 13/13/13 8/8/8
f 9/9/9 10/10/10 15/15/15
f 15/15/15 14/14/14 9/9/9
f 11/11/11 12/12/12 17/17/17
f 17/17/17 16/16/16 11/11/11
f 12/12/12 13/13/13 18/18/18
f 18/18/18 17/17/17 12/12/12
f 13/13/13 14/14/14 19/19/19
f 19/19/19 18/18/18 13/13/13
f 14/14/14 15/15/15 20/20/20
f 20/20/20 19/19/19 14/14/14
f 16/16/16 17/17/17 22/22/22
f 22/22/22 21/21/21 16/16/16
f 17/17/17 18/18/18 23/23/23
f 23/23/23 22/22/22 17/17/17
f 18/18/18 19/19/19 24/24/24
f 24/24/24 23/23/23 18/18/18
f 19/19/19 20/20/20 25/25/25
f 25/25/25 24/24/24 19/19/19
