g UnitMesh
v 0.5 -0.5 -0.001
v 0.4 -0.5 -0.001
v 0.3 -0.5 -0.001
v 0.2 -0.5 -0.001
v 0.1 -0.5 -0.001
v 0 -0.5 -0.001
v -0.1 -0.5 -0.001
v -0.2 -0.5 -0.001
v -0.3 -0.5 -0.001
v -0.4 -0.5 -0.001
v -0.5 -0.5 -0.001
v 0.5 -0.4 -0.001
v 0.4 -0.4 -0.001
v 0.3 -0.4 -0.001
v 0.2 -0.4 -0.001
v 0.1 -0.4 -0.001
v 0 -0.4 -0.001
v -0.1 -0.4 -0.001
v -0.2 -0.4 -0.001
v -0.3 -0.4 -0.001
v -0.4 -0.4 -0.001
v -0.5 -0.4 -0.001
v 0.5 -0.3 -0.001
v 0.4 -0.3 -0.001
v 0.3 -0.3 -0.001
v 0.2 -0.3 -0.001
v 0.1 -0.3 -0.001
v 0 -0.3 -0.001
v -0.1 -0.3 -0.001
v -0.2 -0.3 -0.001
v -0.3 -0.3 -0.001
v -0.4 -0.3 -0.001
v -0.5 -0.3 -0.001
v 0.5 -0.2 -0.001
v 0.4 -0.2 -0.001
v 0.3 -0.2 -0.001
v 0.2 -0.2 -0.001
v 0.1 -0.2 -0.001
v 0 -0.2 -0.001
v -0.1 -0.2 -0.001
v -0.2 -0.2 -0.001
v -0.3 -0.2 -0.001
v -0.4 -0.2 -0.001
v -0.5 -0.2 -0.001
v 0.5 -0.09999999 -0.001
v 0.4 -0.09999999 -0.001
v 0.3 -0.09999999 -0.001
v 0.2 -0.09999999 -0.001
v 0.1 -0.09999999 -0.001
v 0 -0.09999999 -0.001
v -0.1 -0.09999999 -0.001
v -0.2 -0.09999999 -0.001
v -0.3 -0.09999999 -0.001
v -0.4 -0.09999999 -0.001
v -0.5 -0.09999999 -0.001
v 0.5 7.450581E-09 -0.001
v 0.4 7.450581E-09 -0.001
v 0.3 7.450581E-09 -0.001
v 0.2 7.450581E-09 -0.001
v 0.1 7.450581E-09 -0.001
v 0 7.450581E-09 -0.001
v -0.1 7.450581E-09 -0.001
v -0.2 7.450581E-09 -0.001
v -0.3 7.450581E-09 -0.001
v -0.4 7.450581E-09 -0.001
v -0.5 7.450581E-09 -0.001
v 0.5 0.1 -0.001
v 0.4 0.1 -0.001
v 0.3 0.1 -0.001
v 0.2 0.1 -0.001
v 0.1 0.1 -0.001
v 0 0.1 -0.001
v -0.1 0.1 -0.001
v -0.2 0.1 -0.001
v -0.3 0.1 -0.001
v -0.4 0.1 -0.001
v -0.5 0.1 -0.001
v 0.5 0.2 -0.001
v 0.4 0.2 -0.001
v 0.3 0.2 -0.001
v 0.2 0.2 -0.001
v 0.1 0.2 -0.001
v 0 0.2 -0.001
v -0.1 0.2 -0.001
v -0.2 0.2 -0.001
v -0.3 0.2 -0.001
v -0.4 0.2 -0.001
v -0.5 0.2 -0.001
v 0.5 0.3 -0.001
v 0.4 0.3 -0.001
v 0.3 0.3 -0.001
v 0.2 0.3 -0.001
v 0.1 0.3 -0.001
v 0 0.3 -0.001
v -0.1 0.3 -0.001
v -0.2 0.3 -0.001
v -0.3 0.3 -0.001
v -0.4 0.3 -0.001
v -0.5 0.3 -0.001
v 0.5 0.4 -0.001
v 0.4 0.4 -0.001
v 0.3 0.4 -0.001
v 0.2 0.4 -0.001
v 0.1 0.4 -0.001
v 0 0.4 -0.001
v -0.1 0.4 -0.001
v -0.2 0.4 -0.001
v -0.3 0.4 -0.001
v -0.4 0.4 -0.001
v -0.5 0.4 -0.001
v 0.5 0.5 -0.001
v 0.4 0.5 -0.001
v 0.3 0.5 -0.001
v 0.2 0.5 -0.001
v 0.1 0.5 -0.001
v 0 0.5 -0.001
v -0.1 0.5 -0.001
v -0.2 0.5 -0.001
v -0.3 0.5 -0.001
v -0.4 0.5 -0.001
v -0.5 0.5 -0.001
v 0.5 -0.5 -0.001
v 0.4 -0.5 -0.001
v 0.3 -0.5 -0.001
v 0.2 -0.5 -0.001
v 0.1 -0.5 -0.001
v 0 -0.5 -0.001
v -0.1 -0.5 -0.001
v -0.2 -0.5 -0.001
v -0.3 -0.5 -0.001
v -0.4 -0.5 -0.001
v -0.5 -0.5 -0.001
v 0.5 -0.4 -0.001
v 0.4 -0.4 -0.001
v 0.3 -0.4 -0.001
v 0.2 -0.4 -0.001
v 0.1 -0.4 -0.001
v 0 -0.4 -0.001
v -0.1 -0.4 -0.001
v -0.2 -0.4 -0.001
v -0.3 -0.4 -0.001
v -0.4 -0.4 -0.001
v -0.5 -0.4 -0.001
v 0.5 -0.3 -0.001
v 0.4 -0.3 -0.001
v 0.3 -0.3 -0.001
v 0.2 -0.3 -0.001
v 0.1 -0.3 -0.001
v 0 -0.3 -0.001
v -0.1 -0.3 -0.001
v -0.2 -0.3 -0.001
v -0.3 -0.3 -0.001
v -0.4 -0.3 -0.001
v -0.5 -0.3 -0.001
v 0.5 -0.2 -0.001
v 0.4 -0.2 -0.001
v 0.3 -0.2 -0.001
v 0.2 -0.2 -0.001
v 0.1 -0.2 -0.001
v 0 -0.2 -0.001
v -0.1 -0.2 -0.001
v -0.2 -0.2 -0.001
v -0.3 -0.2 -0.001
v -0.4 -0.2 -0.001
v -0.5 -0.2 -0.001
v 0.5 -0.09999999 -0.001
v 0.4 -0.09999999 -0.001
v 0.3 -0.09999999 -0.001
v 0.2 -0.09999999 -0.001
v 0.1 -0.09999999 -0.001
v 0 -0.09999999 -0.001
v -0.1 -0.09999999 -0.001
v -0.2 -0.09999999 -0.001
v -0.3 -0.09999999 -0.001
v -0.4 -0.09999999 -0.001
v -0.5 -0.09999999 -0.001
v 0.5 7.450581E-09 -0.001
v 0.4 7.450581E-09 -0.001
v 0.3 7.450581E-09 -0.001
v 0.2 7.450581E-09 -0.001
v 0.1 7.450581E-09 -0.001
v 0 7.450581E-09 -0.001
v -0.1 7.450581E-09 -0.001
v -0.2 7.450581E-09 -0.001
v -0.3 7.450581E-09 -0.001
v -0.4 7.450581E-09 -0.001
v -0.5 7.450581E-09 -0.001
v 0.5 0.1 -0.001
v 0.4 0.1 -0.001
v 0.3 0.1 -0.001
v 0.2 0.1 -0.001
v 0.1 0.1 -0.001
v 0 0.1 -0.001
v -0.1 0.1 -0.001
v -0.2 0.1 -0.001
v -0.3 0.1 -0.001
v -0.4 0.1 -0.001
v -0.5 0.1 -0.001
v 0.5 0.2 -0.001
v 0.4 0.2 -0.001
v 0.3 0.2 -0.001
v 0.2 0.2 -0.001
v 0.1 0.2 -0.001
v 0 0.2 -0.001
v -0.1 0.2 -0.001
v -0.2 0.2 -0.001
v -0.3 0.2 -0.001
v -0.4 0.2 -0.001
v -0.5 0.2 -0.001
v 0.5 0.3 -0.001
v 0.4 0.3 -0.001
v 0.3 0.3 -0.001
v 0.2 0.3 -0.001
v 0.1 0.3 -0.001
v 0 0.3 -0.001
v -0.1 0.3 -0.001
v -0.2 0.3 -0.001
v -0.3 0.3 -0.001
v -0.4 0.3 -0.001
v -0.5 0.3 -0.001
v 0.5 0.4 -0.001
v 0.4 0.4 -0.001
v 0.3 0.4 -0.001
v 0.2 0.4 -0.001
v 0.1 0.4 -0.001
v 0 0.4 -0.001
v -0.1 0.4 -0.001
v -0.2 0.4 -0.001
v -0.3 0.4 -0.001
v -0.4 0.4 -0.001
v -0.5 0.4 -0.001
v 0.5 0.5 -0.001
v 0.4 0.5 -0.001
v 0.3 0.5 -0.001
v 0.2 0.5 -0.001
v 0.1 0.5 -0.001
v 0 0.5 -0.001
v -0.1 0.5 -0.001
v -0.2 0.5 -0.001
v -0.3 0.5 -0.001
v -0.4 0.5 -0.001
v -0.5 0.5 -0.001
vt 0 0
vt -0.1 0
vt -0.2 0
vt -0.3 0
vt -0.4 0
vt -0.5 0
vt -0.6 0
vt -0.7 0
vt -0.8 0
vt -0.9 0
vt -1 0
vt 0 0.1
vt -0.1 0.1
vt -0.2 0.1
vt -0.3 0.1
vt -0.4 0.1
vt -0.5 0.1
vt -0.6 0.1
vt -0.7 0.1
vt -0.8 0.1
vt -0.9 0.1
vt -1 0.1
vt 0 0.2
vt -0.1 0.2
vt -0.2 0.2
vt -0.3 0.2
vt -0.4 0.2
vt -0.5 0.2
vt -0.6 0.2
vt -0.7 0.2
vt -0.8 0.2
vt -0.9 0.2
vt -1 0.2
vt 0 0.3
vt -0.1 0.3
vt -0.2 0.3
vt -0.3 0.3
vt -0.4 0.3
vt -0.5 0.3
vt -0.6 0.3
vt -0.7 0.3
vt -0.8 0.3
vt -0.9 0.3
vt -1 0.3
vt 0 0.4
vt -0.1 0.4
vt -0.2 0.4
vt -0.3 0.4
vt -0.4 0.4
vt -0.5 0.4
vt -0.6 0.4
vt -0.7 0.4
vt -0.8 0.4
vt -0.9 0.4
vt -1 0.4
vt 0 0.5
vt -0.1 0.5
vt -0.2 0.5
vt -0.3 0.5
vt -0.4 0.5
vt -0.5 0.5
vt -0.6 0.5
vt -0.7 0.5
vt -0.8 0.5
vt -0.9 0.5
vt -1 0.5
vt 0 0.6
vt -0.1 0.6
vt -0.2 0.6
vt -0.3 0.6
vt -0.4 0.6
vt -0.5 0.6
vt -0.6 0.6
vt -0.7 0.6
vt -0.8 0.6
vt -0.9 0.6
vt -1 0.6
vt 0 0.7
vt -0.1 0.7
vt -0.2 0.7
vt -0.3 0.7
vt -0.4 0.7
vt -0.5 0.7
vt -0.6 0.7
vt -0.7 0.7
vt -0.8 0.7
vt -0.9 0.7
vt -1 0.7
vt 0 0.8
vt -0.1 0.8
vt -0.2 0.8
vt -0.3 0.8
vt -0.4 0.8
vt -0.5 0.8
vt -0.6 0.8
vt -0.7 0.8
vt -0.8 0.8
vt -0.9 0.8
vt -1 0.8
vt 0 0.9
vt -0.1 0.9
vt -0.2 0.9
vt -0.3 0.9
vt -0.4 0.9
vt -0.5 0.9
vt -0.6 0.9
vt -0.7 0.9
vt -0.8 0.9
vt -0.9 0.9
vt -1 0.9
vt 0 1
vt -0.1 1
vt -0.2 1
vt -0.3 1
vt -0.4 1
vt -0.5 1
vt -0.6 1
vt -0.7 1
vt -0.8 1
vt -0.9 1
vt -1 1
vt 0 0
vt 0.1 0
vt 0.2 0
vt 0.3 0
vt 0.4 0
vt 0.5 0
vt 0.6 0
vt 0.7 0
vt 0.8 0
vt 0.9 0
vt 1 0
vt 0 0.1
vt 0.1 0.1
vt 0.2 0.1
vt 0.3 0.1
vt 0.4 0.1
vt 0.5 0.1
vt 0.6 0.1
vt 0.7 0.1
vt 0.8 0.1
vt 0.9 0.1
vt 1 0.1
vt 0 0.2
vt 0.1 0.2
vt 0.2 0.2
vt 0.3 0.2
vt 0.4 0.2
vt 0.5 0.2
vt 0.6 0.2
vt 0.7 0.2
vt 0.8 0.2
vt 0.9 0.2
vt 1 0.2
vt 0 0.3
vt 0.1 0.3
vt 0.2 0.3
vt 0.3 0.3
vt 0.4 0.3
vt 0.5 0.3
vt 0.6 0.3
vt 0.7 0.3
vt 0.8 0.3
vt 0.9 0.3
vt 1 0.3
vt 0 0.4
vt 0.1 0.4
vt 0.2 0.4
vt 0.3 0.4
vt 0.4 0.4
vt 0.5 0.4
vt 0.6 0.4
vt 0.7 0.4
vt 0.8 0.4
vt 0.9 0.4
vt 1 0.4
vt 0 0.5
vt 0.1 0.5
vt 0.2 0.5
vt 0.3 0.5
vt 0.4 0.5
vt 0.5 0.5
vt 0.6 0.5
vt 0.7 0.5
vt 0.8 0.5
vt 0.9 0.5
vt 1 0.5
vt 0 0.6
vt 0.1 0.6
vt 0.2 0.6
vt 0.3 0.6
vt 0.4 0.6
vt 0.5 0.6
vt 0.6 0.6
vt 0.7 0.6
vt 0.8 0.6
vt 0.9 0.6
vt 1 0.6
vt 0 0.7
vt 0.1 0.7
vt 0.2 0.7
vt 0.3 0.7
vt 0.4 0.7
vt 0.5 0.7
vt 0.6 0.7
vt 0.7 0.7
vt 0.8 0.7
vt 0.9 0.7
vt 1 0.7
vt 0 0.8
vt 0.1 0.8
vt 0.2 0.8
vt 0.3 0.8
vt 0.4 0.8
vt 0.5 0.8
vt 0.6 0.8
vt 0.7 0.8
vt 0.8 0.8
vt 0.9 0.8
vt 1 0.8
vt 0 0.9
vt 0.1 0.9
vt 0.2 0.9
vt 0.3 0.9
vt 0.4 0.9
vt 0.5 0.9
vt 0.6 0.9
vt 0.7 0.9
vt 0.8 0.9
vt 0.9 0.9
vt 1 0.9
vt 0 1
vt 0.1 1
vt 0.2 1
vt 0.3 1
vt 0.4 1
vt 0.5 1
vt 0.6 1
vt 0.7 1
vt 0.8 1
vt 0.9 1
vt 1 1
vn 0 0 1
vn 0 0 1
vn 0 0 1
vn 0 0 1
vn 0 0 1
vn 0 0 1
vn 0 0 1
vn 0 0 1
vn 0 0 1
vn 0 0 1
vn 0 0 1
vn 0 0 1
vn 0 0 1
vn 0 0 1
vn 0 0 1
vn 0 0 1
vn 0 0 1
vn 0 0 1
vn 0 0 1
vn 0 0 1
vn 0 0 1
vn 0 0 1
vn 0 0 1
vn 0 0 1
vn 0 0 1
vn 0 0 0.9999999
vn 0 0 0.9999999
vn 0 0 0.9999999
vn 0 0 0.9999999
vn 0 0 1
vn 0 0 0.9999999
vn 0 0 1
vn 0 0 1
vn 0 0 1
vn 0 0 1
vn 0 0 0.9999999
vn 0 0 1
vn 0 0 1
vn 0 0 1
vn 0 0 1
vn 0 0 0.9999999
vn 0 0 0.9999999
vn 0 0 1
vn 0 0 1
vn 0 0 1
vn 0 0 1
vn 0 0 1
vn 0 0 1
vn 0 0 1
vn 0 0 1
vn 0 0 1
vn 0 0 0.9999999
vn 0 0 1
vn 0 0 1
vn 0 0 1
vn 0 0 1
vn 0 0 1
vn 0 0 1
vn 0 0 0.9999999
vn 0 0 0.9999999
vn 0 0 0.9999999
vn 0 0 0.9999999
vn 0 0 0.9999999
vn 0 0 1
vn 0 0 1
vn 0 0 1
vn 0 0 1
vn 0 0 1
vn 0 0 0.9999999
vn 0 0 0.9999999
vn 0 0 0.9999999
vn 0 0 0.9999999
vn 0 0 0.9999999
vn 0 0 0.9999999
vn 0 0 1
vn 0 0 1
vn 0 0 1
vn 0 0 1
vn 0 0 1
vn 0 0 1
vn 0 0 1
vn 0 0 1
vn 0 0 1
vn 0 0 1
vn 0 0 0.9999999
vn 0 0 0.9999999
vn 0 0 1
vn 0 0 1
vn 0 0 1
vn 0 0 1
vn 0 0 1
vn 0 0 1
vn 0 0 1
vn 0 0 1
vn 0 0 1
vn 0 0 1
vn 0 0 1
vn 0 0 1
vn 0 0 1
vn 0 0 1
vn 0 0 1
vn 0 0 1
vn 0 0 1
vn 0 0 1
vn 0 0 1
vn 0 0 1
vn 0 0 1
vn 0 0 1
vn 0 0 1
vn 0 0 1
vn 0 0 1
vn 0 0 1
vn 0 0 1
vn 0 0 1
vn 0 0 1
vn 0 0 1
vn 0 0 1
vn 0 0 1
vn 0 0 1
vn 0 0 1
vn 0 0 1
vn 0 0 -1
vn 0 0 -1
vn 0 0 -1
vn 0 0 -1
vn 0 0 -1
vn 0 0 -1
vn 0 0 -1
vn 0 0 -1
vn 0 0 -1
vn 0 0 -1
vn 0 0 -1
vn 0 0 -1
vn 0 0 -1
vn 0 0 -1
vn 0 0 -1
vn 0 0 -1
vn 0 0 -1
vn 0 0 -1
vn 0 0 -1
vn 0 0 -1
vn 0 0 -1
vn 0 0 -1
vn 0 0 -1
vn 0 0 -1
vn 0 0 -1
vn 0 0 -0.9999999
vn 0 0 -0.9999999
vn 0 0 -0.9999999
vn 0 0 -0.9999999
vn 0 0 -1
vn 0 0 -0.9999999
vn 0 0 -1
vn 0 0 -1
vn 0 0 -1
vn 0 0 -1
vn 0 0 -0.9999999
vn 0 0 -1
vn 0 0 -1
vn 0 0 -1
vn 0 0 -1
vn 0 0 -0.9999999
vn 0 0 -0.9999999
vn 0 0 -1
vn 0 0 -1
vn 0 0 -1
vn 0 0 -1
vn 0 0 -1
vn 0 0 -1
vn 0 0 -1
vn 0 0 -1
vn 0 0 -1
vn 0 0 -0.9999999
vn 0 0 -1
vn 0 0 -1
vn 0 0 -1
vn 0 0 -1
vn 0 0 -1
vn 0 0 -1
vn 0 0 -0.9999999
vn 0 0 -0.9999999
vn 0 0 -0.9999999
vn 0 0 -0.9999999
vn 0 0 -0.9999999
vn 0 0 -1
vn 0 0 -1
vn 0 0 -1
vn 0 0 -1
vn 0 0 -1
vn 0 0 -0.9999999
vn 0 0 -0.9999999
vn 0 0 -0.9999999
vn 0 0 -0.9999999
vn 0 0 -0.9999999
vn 0 0 -0.9999999
vn 0 0 -1
vn 0 0 -1
vn 0 0 -1
vn 0 0 -1
vn 0 0 -1
vn 0 0 -1
vn 0 0 -1
vn 0 0 -1
vn 0 0 -1
vn 0 0 -1
vn 0 0 -0.9999999
vn 0 0 -0.9999999
vn 0 0 -1
vn 0 0 -1
vn 0 0 -1
vn 0 0 -1
vn 0 0 -1
vn 0 0 -1
vn 0 0 -1
vn 0 0 -1
vn 0 0 -1
vn 0 0 -1
vn 0 0 -1
vn 0 0 -1
vn 0 0 -1
vn 0 0 -1
vn 0 0 -1
vn 0 0 -1
vn 0 0 -1
vn 0 0 -1
vn 0 0 -1
vn 0 0 -1
vn 0 0 -1
vn 0 0 -1
vn 0 0 -1
vn 0 0 -1
vn 0 0 -1
vn 0 0 -1
vn 0 0 -1
vn 0 0 -1
vn 0 0 -1
vn 0 0 -1
vn 0 0 -1
vn 0 0 -1
vn 0 0 -1
vn 0 0 -1
vn 0 0 -1
g UnitMesh_0
f 12/12/12 2/2/2 1/1/1
f 12/12/12 13/13/13 2/2/2
f 13/13/13 3/3/3 2/2/2
f 13/13/13 14/14/14 3/3/3
f 14/14/14 4/4/4 3/3/3
f 14/14/14 15/15/15 4/4/4
f 15/15/15 5/5/5 4/4/4
f 15/15/15 16/16/16 5/5/5
f 16/16/16 6/6/6 5/5/5
f 16/16/16 17/17/17 6/6/6
f 17/17/17 7/7/7 6/6/6
f 17/17/17 18/18/18 7/7/7
f 18/18/18 8/8/8 7/7/7
f 18/18/18 19/19/19 8/8/8
f 19/19/19 9/9/9 8/8/8
f 19/19/19 20/20/20 9/9/9
f 20/20/20 10/10/10 9/9/9
f 20/20/20 21/21/21 10/10/10
f 21/21/21 11/11/11 10/10/10
f 21/21/21 22/22/22 11/11/11
f 23/23/23 13/13/13 12/12/12
f 23/23/23 24/24/24 13/13/13
f 24/24/24 14/14/14 13/13/13
f 24/24/24 25/25/25 14/14/14
f 25/25/25 15/15/15 14/14/14
f 25/25/25 26/26/26 15/15/15
f 26/26/26 16/16/16 15/15/15
f 26/26/26 27/27/27 16/16/16
f 27/27/27 17/17/17 16/16/16
f 27/27/27 28/28/28 17/17/17
f 28/28/28 18/18/18 17/17/17
f 28/28/28 29/29/29 18/18/18
f 29/29/29 19/19/19 18/18/18
f 29/29/29 30/30/30 19/19/19
f 30/30/30 20/20/20 19/19/19
f 30/30/30 31/31/31 20/20/20
f 31/31/31 21/21/21 20/20/20
f 31/31/31 32/32/32 21/21/21
f 32/32/32 22/22/22 21/21/21
f 32/32/32 33/33/33 22/22/22
f 34/34/34 24/24/24 23/23/23
f 34/34/34 35/35/35 24/24/24
f 35/35/35 25/25/25 24/24/24
f 35/35/35 36/36/36 25/25/25
f 36/36/36 26/26/26 25/25/25
f 36/36/36 37/37/37 26/26/26
f 37/37/37 27/27/27 26/26/26
f 37/37/37 38/38/38 27/27/27
f 38/38/38 28/28/28 27/27/27
f 38/38/38 39/39/39 28/28/28
f 39/39/39 29/29/29 28/28/28
f 39/39/39 40/40/40 29/29/29
f 40/40/40 30/30/30 29/29/29
f 40/40/40 41/41/41 30/30/30
f 41/41/41 31/31/31 30/30/30
f 41/41/41 42/42/42 31/31/31
f 42/42/42 32/32/32 31/31/31
f 42/42/42 43/43/43 32/32/32
f 43/43/43 33/33/33 32/32/32
f 43/43/43 44/44/44 33/33/33
f 45/45/45 35/35/35 34/34/34
f 45/45/45 46/46/46 35/35/35
f 46/46/46 36/36/36 35/35/35
f 46/46/46 47/47/47 36/36/36
f 47/47/47 37/37/37 36/36/36
f 47/47/47 48/48/48 37/37/37
f 48/48/48 38/38/38 37/37/37
f 48/48/48 49/49/49 38/38/38
f 49/49/49 39/39/39 38/38/38
f 49/49/49 50/50/50 39/39/39
f 50/50/50 40/40/40 39/39/39
f 50/50/50 51/51/51 40/40/40
f 51/51/51 41/41/41 40/40/40
f 51/51/51 52/52/52 41/41/41
f 52/52/52 42/42/42 41/41/41
f 52/52/52 53/53/53 42/42/42
f 53/53/53 43/43/43 42/42/42
f 53/53/53 54/54/54 43/43/43
f 54/54/54 44/44/44 43/43/43
f 54/54/54 55/55/55 44/44/44
f 56/56/56 46/46/46 45/45/45
f 56/56/56 57/57/57 46/46/46
f 57/57/57 47/47/47 46/46/46
f 57/57/57 58/58/58 47/47/47
f 58/58/58 48/48/48 47/47/47
f 58/58/58 59/59/59 48/48/48
f 59/59/59 49/49/49 48/48/48
f 59/59/59 60/60/60 49/49/49
f 60/60/60 50/50/50 49/49/49
f 60/60/60 61/61/61 50/50/50
f 61/61/61 51/51/51 50/50/50
f 61/61/61 62/62/62 51/51/51
f 62/62/62 52/52/52 51/51/51
f 62/62/62 63/63/63 52/52/52
f 63/63/63 53/53/53 52/52/52
f 63/63/63 64/64/64 53/53/53
f 64/64/64 54/54/54 53/53/53
f 64/64/64 65/65/65 54/54/54
f 65/65/65 55/55/55 54/54/54
f 65/65/65 66/66/66 55/55/55
f 67/67/67 57/57/57 56/56/56
f 67/67/67 68/68/68 57/57/57
f 68/68/68 58/58/58 57/57/57
f 68/68/68 69/69/69 58/58/58
f 69/69/69 59/59/59 58/58/58
f 69/69/69 70/70/70 59/59/59
f 70/70/70 60/60/60 59/59/59
f 70/70/70 71/71/71 60/60/60
f 71/71/71 61/61/61 60/60/60
f 71/71/71 72/72/72 61/61/61
f 72/72/72 62/62/62 61/61/61
f 72/72/72 73/73/73 62/62/62
f 73/73/73 63/63/63 62/62/62
f 73/73/73 74/74/74 63/63/63
f 74/74/74 64/64/64 63/63/63
f 74/74/74 75/75/75 64/64/64
f 75/75/75 65/65/65 64/64/64
f 75/75/75 76/76/76 65/65/65
f 76/76/76 66/66/66 65/65/65
f 76/76/76 77/77/77 66/66/66
f 78/78/78 68/68/68 67/67/67
f 78/78/78 79/79/79 68/68/68
f 79/79/79 69/69/69 68/68/68
f 79/79/79 80/80/80 69/69/69
f 80/80/80 70/70/70 69/69/69
f 80/80/80 81/81/81 70/70/70
f 81/81/81 71/71/71 70/70/70
f 81/81/81 82/82/82 71/71/71
f 82/82/82 72/72/72 71/71/71
f 82/82/82 83/83/83 72/72/72
f 83/83/83 73/73/73 72/72/72
f 83/83/83 84/84/84 73/73/73
f 84/84/84 74/74/74 73/73/73
f 84/84/84 85/85/85 74/74/74
f 85/85/85 75/75/75 74/74/74
f 85/85/85 86/86/86 75/75/75
f 86/86/86 76/76/76 75/75/75
f 86/86/86 87/87/87 76/76/76
f 87/87/87 77/77/77 76/76/76
f 87/87/87 88/88/88 77/77/77
f 89/89/89 79/79/79 78/78/78
f 89/89/89 90/90/90 79/79/79
f 90/90/90 80/80/80 79/79/79
f 90/90/90 91/91/91 80/80/80
f 91/91/91 81/81/81 80/80/80
f 91/91/91 92/92/92 81/81/81
f 92/92/92 82/82/82 81/81/81
f 92/92/92 93/93/93 82/82/82
f 93/93/93 83/83/83 82/82/82
f 93/93/93 94/94/94 83/83/83
f 94/94/94 84/84/84 83/83/83
f 94/94/94 95/95/95 84/84/84
f 95/95/95 85/85/85 84/84/84
f 95/95/95 96/96/96 85/85/85
f 96/96/96 86/86/86 85/85/85
f 96/96/96 97/97/97 86/86/86
f 97/97/97 87/87/87 86/86/86
f 97/97/97 98/98/98 87/87/87
f 98/98/98 88/88/88 87/87/87
f 98/98/98 99/99/99 88/88/88
f 100/100/100 90/90/90 89/89/89
f 100/100/100 101/101/101 90/90/90
f 101/101/101 91/91/91 90/90/90
f 101/101/101 102/102/102 91/91/91
f 102/102/102 92/92/92 91/91/91
f 102/102/102 103/103/103 92/92/92
f 103/103/103 93/93/93 92/92/92
f 103/103/103 104/104/104 93/93/93
f 104/104/104 94/94/94 93/93/93
f 104/104/104 105/105/105 94/94/94
f 105/105/105 95/95/95 94/94/94
f 105/105/105 106/106/106 95/95/95
f 106/106/106 96/96/96 95/95/95
f 106/106/106 107/107/107 96/96/96
f 107/107/107 97/97/97 96/96/96
f 107/107/107 108/108/108 97/97/97
f 108/108/108 98/98/98 97/97/97
f 108/108/108 109/109/109 98/98/98
f 109/109/109 99/99/99 98/98/98
f 109/109/109 110/110/110 99/99/99
f 111/111/111 101/101/101 100/100/100
f 111/111/111 112/112/112 101/101/101
f 112/112/112 102/102/102 101/101/101
f 112/112/112 113/113/113 102/102/102
f 113/113/113 103/103/103 102/102/102
f 113/113/113 114/114/114 103/103/103
f 114/114/114 104/104/104 103/103/103
f 114/114/114 115/115/115 104/104/104
f 115/115/115 105/105/105 104/104/104
f 115/115/115 116/116/116 105/105/105
f 116/116/116 106/106/106 105/105/105
f 116/116/116 117/117/117 106/106/106
f 117/117/117 107/107/107 106/106/106
f 117/117/117 118/118/118 107/107/107
f 118/118/118 108/108/108 107/107/107
f 118/118/118 119/119/119 108/108/108
f 119/119/119 109/109/109 108/108/108
f 119/119/119 120/120/120 109/109/109
f 120/120/120 110/110/110 109/109/109
f 120/120/120 121/121/121 110/110/110
f 122/122/122 123/123/123 133/133/133
f 123/123/123 134/134/134 133/133/133
f 123/123/123 124/124/124 134/134/134
f 124/124/124 135/135/135 134/134/134
f 124/124/124 125/125/125 135/135/135
f 125/125/125 136/136/136 135/135/135
f 125/125/125 126/126/126 136/136/136
f 126/126/126 137/137/137 136/136/136
f 126/126/126 127/127/127 137/137/137
f 127/127/127 138/138/138 137/137/137
f 127/127/127 128/128/128 138/138/138
f 128/128/128 139/139/139 138/138/138
f 128/128/128 129/129/129 139/139/139
f 129/129/129 140/140/140 139/139/139
f 129/129/129 130/130/130 140/140/140
f 130/130/130 141/141/141 140/140/140
f 130/130/130 131/131/131 141/141/141
f 131/131/131 142/142/142 141/141/141
f 131/131/131 132/132/132 142/142/142
f 132/132/132 143/143/143 142/142/142
f 133/133/133 134/134/134 144/144/144
f 134/134/134 145/145/145 144/144/144
f 134/134/134 135/135/135 145/145/145
f 135/135/135 146/146/146 145/145/145
f 135/135/135 136/136/136 146/146/146
f 136/136/136 147/147/147 146/146/146
f 136/136/136 137/137/137 147/147/147
f 137/137/137 148/148/148 147/147/147
f 137/137/137 138/138/138 148/148/148
f 138/138/138 149/149/149 148/148/148
f 138/138/138 139/139/139 149/149/149
f 139/139/139 150/150/150 149/149/149
f 139/139/139 140/140/140 150/150/150
f 140/140/140 151/151/151 150/150/150
f 140/140/140 141/141/141 151/151/151
f 141/141/141 152/152/152 151/151/151
f 141/141/141 142/142/142 152/152/152
f 142/142/142 153/153/153 152/152/152
f 142/142/142 143/143/143 153/153/153
f 143/143/143 154/154/154 153/153/153
f 144/144/144 145/145/145 155/155/155
f 145/145/145 156/156/156 155/155/155
f 145/145/145 146/146/146 156/156/156
f 146/146/146 157/157/157 156/156/156
f 146/146/146 147/147/147 157/157/157
f 147/147/147 158/158/158 157/157/157
f 147/147/147 148/148/148 158/158/158
f 148/148/148 159/159/159 158/158/158
f 148/148/148 149/149/149 159/159/159
f 149/149/149 160/160/160 159/159/159
f 149/149/149 150/150/150 160/160/160
f 150/150/150 161/161/161 160/160/160
f 150/150/150 151/151/151 161/161/161
f 151/151/151 162/162/162 161/161/161
f 151/151/151 152/152/152 162/162/162
f 152/152/152 163/163/163 162/162/162
f 152/152/152 153/153/153 163/163/163
f 153/153/153 164/164/164 163/163/163
f 153/153/153 154/154/154 164/164/164
f 154/154/154 165/165/165 164/164/164
f 155/155/155 156/156/156 166/166/166
f 156/156/156 167/167/167 166/166/166
f 156/156/156 157/157/157 167/167/167
f 157/157/157 168/168/168 167/167/167
f 157/157/157 158/158/158 168/168/168
f 158/158/158 169/169/169 168/168/168
f 158/158/158 159/159/159 169/169/169
f 159/159/159 170/170/170 169/169/169
f 159/159/159 160/160/160 170/170/170
f 160/160/160 171/171/171 170/170/170
f 160/160/160 161/161/161 171/171/171
f 161/161/161 172/172/172 171/171/171
f 161/161/161 162/162/162 172/172/172
f 162/162/162 173/173/173 172/172/172
f 162/162/162 163/163/163 173/173/173
f 163/163/163 174/174/174 173/173/173
f 163/163/163 164/164/164 174/174/174
f 164/164/164 175/175/175 174/174/174
f 164/164/164 165/165/165 175/175/175
f 165/165/165 176/176/176 175/175/175
f 166/166/166 167/167/167 177/177/177
f 167/167/167 178/178/178 177/177/177
f 167/167/167 168/168/168 178/178/178
f 168/168/168 179/179/179 178/178/178
f 168/168/168 169/169/169 179/179/179
f 169/169/169 180/180/180 179/179/179
f 169/169/169 170/170/170 180/180/180
f 170/170/170 181/181/181 180/180/180
f 170/170/170 171/171/171 181/181/181
f 171/171/171 182/182/182 181/181/181
f 171/171/171 172/172/172 182/182/182
f 172/172/172 183/183/183 182/182/182
f 172/172/172 173/173/173 183/183/183
f 173/173/173 184/184/184 183/183/183
f 173/173/173 174/174/174 184/184/184
f 174/174/174 185/185/185 184/184/184
f 174/174/174 175/175/175 185/185/185
f 175/175/175 186/186/186 185/185/185
f 175/175/175 176/176/176 186/186/186
f 176/176/176 187/187/187 186/186/186
f 177/177/177 178/178/178 188/188/188
f 178/178/178 189/189/189 188/188/188
f 178/178/178 179/179/179 189/189/189
f 179/179/179 190/190/190 189/189/189
f 179/179/179 180/180/180 190/190/190
f 180/180/180 191/191/191 190/190/190
f 180/180/180 181/181/181 191/191/191
f 181/181/181 192/192/192 191/191/191
f 181/181/181 182/182/182 192/192/192
f 182/182/182 193/193/193 192/192/192
f 182/182/182 183/183/183 193/193/193
f 183/183/183 194/194/194 193/193/193
f 183/183/183 184/184/184 194/194/194
f 184/184/184 195/195/195 194/194/194
f 184/184/184 185/185/185 195/195/195
f 185/185/185 196/196/196 195/195/195
f 185/185/185 186/186/186 196/196/196
f 186/186/186 197/197/197 196/196/196
f 186/186/186 187/187/187 197/197/197
f 187/187/187 198/198/198 197/197/197
f 188/188/188 189/189/189 199/199/199
f 189/189/189 200/200/200 199/199/199
f 189/189/189 190/190/190 200/200/200
f 190/190/190 201/201/201 200/200/200
f 190/190/190 191/191/191 201/201/201
f 191/191/191 202/202/202 201/201/201
f 191/191/191 192/192/192 202/202/202
f 192/192/192 203/203/203 202/202/202
f 192/192/192 193/193/193 203/203/203
f 193/193/193 204/204/204 203/203/203
f 193/193/193 194/194/194 204/204/204
f 194/194/194 205/205/205 204/204/204
f 194/194/194 195/195/195 205/205/205
f 195/195/195 206/206/206 205/205/205
f 195/195/195 196/196/196 206/206/206
f 196/196/196 207/207/207 206/206/206
f 196/196/196 197/197/197 207/207/207
f 197/197/197 208/208/208 207/207/207
f 197/197/197 198/198/198 208/208/208
f 198/198/198 209/209/209 208/208/208
f 199/199/199 200/200/200 210/210/210
f 200/200/200 211/211/211 210/210/210
f 200/200/200 201/201/201 211/211/211
f 201/201/201 212/212/212 211/211/211
f 201/201/201 202/202/202 212/212/212
f 202/202/202 213/213/213 212/212/212
f 202/202/202 203/203/203 213/213/213
f 203/203/203 214/214/214 213/213/213
f 203/203/203 204/204/204 214/214/214
f 204/204/204 215/215/215 214/214/214
f 204/204/204 205/205/205 215/215/215
f 205/205/205 216/216/216 215/215/215
f 205/205/205 206/206/206 216/216/216
f 206/206/206 217/217/217 216/216/216
f 206/206/206 207/207/207 217/217/217
f 207/207/207 218/218/218 217/217/217
f 207/207/207 208/208/208 218/218/218
f 208/208/208 219/219/219 218/218/218
f 208/208/208 209/209/209 219/219/219
f 209/209/209 220/220/220 219/219/219
f 210/210/210 211/211/211 221/221/221
f 211/211/211 222/222/222 221/221/221
f 211/211/211 212/212/212 222/222/222
f 212/212/212 223/223/223 222/222/222
f 212/212/212 213/213/213 223/223/223
f 213/213/213 224/224/224 223/223/223
f 213/213/213 214/214/214 224/224/224
f 214/214/214 225/225/225 224/224/224
f 214/214/214 215/215/215 225/225/225
f 215/215/215 226/226/226 225/225/225
f 215/215/215 216/216/216 226/226/226
f 216/216/216 227/227/227 226/226/226
f 216/216/216 217/217/217 227/227/227
f 217/217/217 228/228/228 227/227/227
f 217/217/217 218/218/218 228/228/228
f 218/218/218 229/229/229 228/228/228
f 218/218/218 219/219/219 229/229/229
f 219/219/219 230/230/230 229/229/229
f 219/219/219 220/220/220 230/230/230
f 220/220/220 231/231/231 230/230/230
f 221/221/221 222/222/222 232/232/232
f 222/222/222 233/233/233 232/232/232
f 222/222/222 223/223/223 233/233/233
f 223/223/223 234/234/234 233/233/233
f 223/223/223 224/224/224 234/234/234
f 224/224/224 235/235/235 234/234/234
f 224/224/224 225/225/225 235/235/235
f 225/225/225 236/236/236 235/235/235
f 225/225/225 226/226/226 236/236/236
f 226/226/226 237/237/237 236/236/236
f 226/226/226 227/227/227 237/237/237
f 227/227/227 238/238/238 237/237/237
f 227/227/227 228/228/228 238/238/238
f 228/228/228 239/239/239 238/238/238
f 228/228/228 229/229/229 239/239/239
f 229/229/229 240/240/240 239/239/239
f 229/229/229 230/230/230 240/240/240
f 230/230/230 241/241/241 240/240/240
f 230/230/230 231/231/231 241/241/241
f 231/231/231 242/242/242 241/241/241
